PathFileType	4	(X/Y/Z)	Patient4_TMGait_0pt5_01_right_27.trc.trc
DataRate	CameraRate	NumFrames	NumMarkers	Units	OrigDataRate	OrigDataStartFrame	OrigNumFrames
75.675675675676	75.675675675676	4	33	mm	75.675675675676	89	       141
Frame#	Time	L.ASIS			Sacral			L.Shoulder			Chest			R.Shoulder			Neck			R.ASIS			R.Thigh.Superior			R.Thigh.Lateral			R.Thigh.Inferior			R.Patella			L.Thigh.Superior			L.Thigh.Lateral			L.Thigh.Inferior			L.Patella			L.Shank.Superior			L.Shank.Lateral			L.Shank.Inferior			R.Shank.Superior			R.Shank.Lateral			R.Shank.Inferior			R.Heel			R.Midfoot.Superior			R.Midfoot.Lateral			R.Toe			L.Heel			L.Midfoot.Lateral			L.Midfoot.Superior			L.Toe			L.Elbow			L.Wrist			R.Elbow			R.Wrist			
		X1	Y1	Z1	X2	Y2	Z2	X3	Y3	Z3	X4	Y4	Z4	X5	Y5	Z5	X6	Y6	Z6	X7	Y7	Z7	X8	Y8	Z8	X9	Y9	Z9	X10	Y10	Z10	X11	Y11	Z11	X12	Y12	Z12	X13	Y13	Z13	X14	Y14	Z14	X15	Y15	Z15	X16	Y16	Z16	X17	Y17	Z17	X18	Y18	Z18	X19	Y19	Z19	X20	Y20	Z20	X21	Y21	Z21	X22	Y22	Z22	X23	Y23	Z23	X24	Y24	Z24	X25	Y25	Z25	X26	Y26	Z26	X27	Y27	Z27	X28	Y28	Z28	X29	Y29	Z29	X30	Y30	Z30	X31	Y31	Z31	X32	Y32	Z32	X33	Y33	Z33	

89	36.592857142857	882.679499270696	956.136455863293	295.028642562904	672.754840620449	1004.363538856418	458.315948915181	830.483022086970	1431.615155341758	272.019959151485	943.875917497710	1362.318955283311	426.190156562856	869.848388447608	1438.179109547897	604.536034827154	840.200429164424	1492.868043251047	421.981397277561	900.153914002402	936.058374433597	568.199335781536	932.500649617353	730.310742774239	548.924758109819	848.376232785859	624.900630833091	613.617709816723	926.932729519044	562.358177150240	540.355881814740	914.220589126626	453.869004578332	559.729480662835	950.011998430811	760.198382470187	328.674638521856	876.805991120095	635.288545005019	269.669469945094	970.112967880915	567.064619987251	333.080256716515	978.834497752526	494.765393180700	342.700131745737	952.071413572738	419.849110086930	336.305793259282	865.646569678082	303.685133859957	284.477119968229	916.631442415739	194.186521896579	357.414952524806	836.674659685529	387.971309160793	563.762242860336	716.566557115748	346.888983851533	623.192147256349	702.321905943119	239.424368532775	571.556576464263	498.988370009848	170.167623755897	541.071411405690	670.576381923933	126.756850034481	585.601347323064	561.549008047068	119.572756030185	617.582920048533	741.978545990236	32.459479227585	618.341308607253	789.002726227268	38.016674039916	397.712066679545	865.017768566145	35.170753434665	318.500022549894	947.241745936957	96.312278275143	347.122061121733	1076.336668448602	45.760503511119	322.746816914135	742.053573763482	1088.759271338161	157.496457176344	821.358519235259	838.259233994724	142.515155942802	911.349669118593	1095.320579857577	718.929135839443	1139.523100114148	1015.214642984258	639.335287571149	
90	36.606071428571	883.170998134507	956.387506305575	293.094733567465	672.440399876591	1004.611700718909	455.202205577995	832.148135112907	1431.510101738382	268.546455428080	944.178676342528	1362.672403204861	423.934125392959	868.595412976422	1439.025492780508	601.435206001599	840.491282390568	1493.281230526225	418.369778133644	899.338520520314	936.565719586781	566.137305276865	937.560160282853	733.364616765042	546.727394133011	857.231973366972	625.907863154442	612.089720249850	937.801847895532	565.122287907017	538.914247690231	926.983603467424	455.275234597063	558.976814112119	948.871055069406	759.161599596635	325.463968379648	873.867167507933	635.206972841527	267.461358497267	966.588622970548	566.150522654870	330.614279395767	974.529747034832	493.986313649117	340.487014910031	947.457824857966	419.201930129124	334.464257703615	860.399967841577	303.302359075277	283.158818716056	910.812636625259	193.868027168154	356.574728238777	847.729738444802	389.883996659124	562.649286863066	725.824885129680	352.578263242921	621.228982560166	708.925177709262	245.339045952856	569.999816855857	504.098114472265	183.973083006879	538.044832109357	673.460580823896	132.679791004185	584.074803451370	563.704544798972	130.678344669743	615.221230955213	740.030504053332	33.176367521866	617.957554407530	782.384304370203	38.061045444186	397.546909777083	858.400308270418	35.092804512679	318.329104376924	940.726802010043	96.161263605577	346.886413878943	1069.805435550513	45.397572055190	322.636951026789	746.924770931789	1088.217219449748	152.477257612647	831.767833369661	839.381023300625	138.805922702050	901.788852115673	1095.326083116739	716.961166953641	1127.248062912868	1003.997950658151	640.703981106357	
91	36.619285714286	883.534312734363	956.670089967346	291.310225738930	672.016683632403	1004.825936822161	452.276888865053	833.703360415363	1431.351856260624	265.241349546158	944.343143795905	1362.994799082854	421.850002421768	867.206924768186	1439.817855978342	598.506366026869	840.760211608105	1493.676452474311	414.917179278015	898.431530337430	937.122249230369	564.259245465368	942.410009358360	736.763464089286	544.622611842520	866.004698370904	627.355099266287	610.748089986710	948.467432628967	568.435881730504	537.619818723469	939.771619932493	457.370996451380	558.238614854120	947.522211053546	758.200059035169	322.508048768123	870.780973518929	635.179739764127	265.434297429332	962.907831004348	565.286399790254	328.315872045359	970.064147180956	493.248582156597	338.410066167876	942.698096744964	418.622664074589	332.722560583763	854.991370336082	302.993591401162	281.945787829001	904.926048651905	193.603682742310	355.768265308806	859.099746746041	392.241714578182	561.553359266007	735.637691805964	358.236175666348	619.277921103617	716.441027769699	251.259823414676	568.333269148839	510.548203996539	196.730842871831	534.872372553675	677.714262465424	138.736783051334	582.331286415101	567.460212678738	141.214484471693	612.688208885859	740.053745060250	34.510563768597	617.357414462671	775.768142782401	38.118871577799	397.379115853700	851.787635232009	35.033741635367	318.166074495940	934.206636648537	96.041550783893	346.647262662035	1063.261040798385	45.089834200826	322.523592236124	752.171941681352	1087.567557382175	147.488114073326	842.374520493494	840.497218642749	135.075737074336	891.692851018311	1095.419673056683	715.102281543167	1113.720545138903	992.406656471738	642.562741935234	
92	36.632500000000	883.789751358352	957.019724514390	289.662972175699	671.511241861636	1005.052640041175	449.543187649164	835.141354890346	1431.184491591208	262.113245251123	944.372104690253	1363.330906032311	419.935390071525	865.694028423119	1440.608893818889	595.746403437576	841.009347191059	1494.088005115995	411.631781714281	897.472746776759	937.792593180838	562.585682478780	946.960636490292	740.488514478894	542.652073088944	874.514800644001	629.258945969517	609.594337314629	958.743611067139	572.283705210411	536.500777249275	952.384965559316	460.162773770205	557.564295654044	945.969226659063	757.323014885631	319.815182285844	867.517661861528	635.208206967693	263.612555495019	959.036371054359	564.467615582764	326.206113907215	965.400438351568	492.559499879239	336.508073678104	937.760660652330	418.124661177617	331.111938360526	849.399285650696	302.768951826545	280.854442913713	898.954885927656	193.401587226640	355.012472200547	870.635318327847	395.025131737743	560.526160480740	745.879032394138	363.684369093321	617.413990033158	724.873408977450	256.956110415190	566.643624963870	518.307201546563	207.882428235770	531.712765046771	683.496290559813	144.597114603608	580.440868592450	572.936165734195	150.654990983008	610.093658388304	742.413904917734	36.410524639553	616.524141275843	769.149549316298	38.187909491832	397.213931396506	845.175757385750	34.993735232300	318.014674182795	927.675787575036	95.955037365630	346.408912831161	1056.697955638695	44.841564295413	322.407553841927	757.813892410027	1086.850946165795	142.584637482499	853.145652741702	841.622544774965	131.378572842538	881.179844230858	1095.711199604786	713.359468888966	1098.933115473727	980.575962632792	644.885767437140	
